<svg xmlns="http://www.w3.org/2000/svg" fill="none" viewBox="0 0 24 24" stroke-width="1.5" stroke="currentColor">
  <path stroke-linecap="round" stroke-linejoin="round" d="M8.25 18.75a1.5 1.5 0 01-3 0m3 0a1.5 1.5 0 00-3 0m3 0h6m-9 0H3.375a1.125 1.125 0 01-1.125-1.125V14.25m17.25 4.5a1.5 1.5 0 01-3 0m3 0a1.5 1.5 0 00-3 0m3 0h1.125c.621 0 1.125-.504 1.125-1.125V13.5m-17.25 0H18M2.25 9h4.5m-4.5 0a.75.75 0 01-.75-.75V6a.75.75 0 01.75-.75h1.5M2.25 9V6.75m0 0h4.5m13.5 2.25h-4.5m0 0V6.75A.75.75 0 0117.25 6h1.5c.414 0 .75.336.75.75V9m0 0h-4.5m0-2.25h4.5" />
</svg>

